<svg xmlns="http://www.w3.org/2000/svg" xmlns:xlink="http://www.w3.org/1999/xlink" width="1080" zoomAndPan="magnify" viewBox="0 0 810 1012.49997" height="1350" preserveAspectRatio="xMidYMid meet" version="1.0"><defs><g/><clipPath id="ea53092c3d"><path d="M 359 622 L 391 622 L 391 725.457031 L 359 725.457031 Z M 359 622 " clip-rule="nonzero"/></clipPath><clipPath id="75fdbceafc"><path d="M 430 622 L 461 622 L 461 725.457031 L 430 725.457031 Z M 430 622 " clip-rule="nonzero"/></clipPath><clipPath id="e645d092cc"><path d="M 725 472 L 762.703125 472 L 762.703125 496 L 725 496 Z M 725 472 " clip-rule="nonzero"/></clipPath><clipPath id="7e54cc9b5c"><path d="M 132 286.171875 L 673 286.171875 L 673 645 L 132 645 Z M 132 286.171875 " clip-rule="nonzero"/></clipPath></defs><g fill="#000000" fill-opacity="1"><g transform="translate(290.109306, 457.309056)"><g><path d="M 8.359375 0 L 8.359375 -0.546875 C 9.003906 -0.742188 9.441406 -1.160156 9.671875 -1.796875 C 9.910156 -2.441406 10.03125 -3.617188 10.03125 -5.328125 L 10.03125 -28.71875 L 7.984375 -28.71875 C 6.109375 -28.71875 4.675781 -28.421875 3.6875 -27.828125 C 2.707031 -27.242188 1.859375 -26.195312 1.140625 -24.6875 L 0.671875 -24.765625 L 0.921875 -29.390625 L 22.546875 -29.390625 L 22.796875 -24.765625 L 22.328125 -24.6875 C 21.628906 -26.195312 20.789062 -27.242188 19.8125 -27.828125 C 18.832031 -28.421875 17.394531 -28.71875 15.5 -28.71875 L 13.515625 -28.71875 L 13.515625 -5.328125 C 13.515625 -3.617188 13.632812 -2.441406 13.875 -1.796875 C 14.113281 -1.160156 14.554688 -0.742188 15.203125 -0.546875 L 15.203125 0 Z M 8.359375 0 "/></g></g><g transform="translate(313.617696, 457.309056)"><g><path d="M 1.140625 0 L 1.140625 -0.546875 C 1.773438 -0.742188 2.210938 -1.160156 2.453125 -1.796875 C 2.691406 -2.441406 2.8125 -3.617188 2.8125 -5.328125 L 2.8125 -27.578125 C 2.8125 -28.554688 2.75 -29.289062 2.625 -29.78125 C 2.5 -30.269531 2.316406 -30.625 2.078125 -30.84375 C 1.835938 -31.070312 1.523438 -31.273438 1.140625 -31.453125 L 1.140625 -31.90625 L 5.703125 -33.921875 L 6.09375 -33.625 L 6.09375 -17.421875 C 7.320312 -18.398438 8.703125 -19.285156 10.234375 -20.078125 C 11.773438 -20.878906 13.359375 -21.28125 14.984375 -21.28125 C 17.054688 -21.28125 18.679688 -20.675781 19.859375 -19.46875 C 21.035156 -18.269531 21.625 -16.441406 21.625 -13.984375 L 21.625 -5.328125 C 21.625 -3.617188 21.738281 -2.441406 21.96875 -1.796875 C 22.207031 -1.160156 22.648438 -0.742188 23.296875 -0.546875 L 23.296875 0 L 16.671875 0 L 16.671875 -0.546875 C 17.316406 -0.742188 17.753906 -1.160156 17.984375 -1.796875 C 18.222656 -2.441406 18.34375 -3.617188 18.34375 -5.328125 L 18.34375 -13.140625 C 18.34375 -15.328125 17.878906 -17 16.953125 -18.15625 C 16.035156 -19.320312 14.65625 -19.90625 12.8125 -19.90625 C 11.65625 -19.90625 10.507812 -19.601562 9.375 -19 C 8.25 -18.394531 7.15625 -17.644531 6.09375 -16.75 L 6.09375 -5.328125 C 6.09375 -3.617188 6.207031 -2.441406 6.4375 -1.796875 C 6.675781 -1.160156 7.117188 -0.742188 7.765625 -0.546875 L 7.765625 0 Z M 1.140625 0 "/></g></g></g><g fill="#000000" fill-opacity="1"><g transform="translate(337.923689, 457.309056)"><g><path d="M 11.46875 0.421875 C 10.3125 0.421875 9.144531 0.210938 7.96875 -0.203125 C 6.800781 -0.628906 5.726562 -1.269531 4.75 -2.125 C 3.769531 -2.976562 2.984375 -4.046875 2.390625 -5.328125 C 1.804688 -6.617188 1.515625 -8.128906 1.515625 -9.859375 C 1.515625 -12.160156 2.023438 -14.164062 3.046875 -15.875 C 4.066406 -17.582031 5.414062 -18.910156 7.09375 -19.859375 C 8.769531 -20.804688 10.585938 -21.28125 12.546875 -21.28125 C 14.316406 -21.28125 15.820312 -20.9375 17.0625 -20.25 C 18.3125 -19.570312 19.273438 -18.671875 19.953125 -17.546875 C 20.640625 -16.429688 21 -15.203125 21.03125 -13.859375 L 4.625 -13.859375 C 4.539062 -13.242188 4.5 -12.597656 4.5 -11.921875 C 4.5 -10.015625 4.867188 -8.328125 5.609375 -6.859375 C 6.347656 -5.390625 7.394531 -4.25 8.75 -3.4375 C 10.113281 -2.625 11.703125 -2.21875 13.515625 -2.21875 C 15.140625 -2.21875 16.550781 -2.550781 17.75 -3.21875 C 18.957031 -3.894531 20.035156 -4.78125 20.984375 -5.875 L 21.375 -5.5 C 20.675781 -4.519531 19.832031 -3.570312 18.84375 -2.65625 C 17.863281 -1.75 16.765625 -1.007812 15.546875 -0.4375 C 14.335938 0.132812 12.976562 0.421875 11.46875 0.421875 Z M 4.75 -14.40625 L 17.671875 -14.40625 C 17.535156 -15.351562 17.191406 -16.296875 16.640625 -17.234375 C 16.097656 -18.171875 15.367188 -18.953125 14.453125 -19.578125 C 13.546875 -20.210938 12.453125 -20.53125 11.171875 -20.53125 C 9.378906 -20.5625 7.941406 -19.988281 6.859375 -18.8125 C 5.785156 -17.632812 5.082031 -16.164062 4.75 -14.40625 Z M 4.75 -14.40625 "/></g></g></g><g fill="#000000" fill-opacity="1"><g transform="translate(360.466548, 457.309056)"><g/></g></g><g fill="#000000" fill-opacity="1"><g transform="translate(369.28219, 457.309056)"><g><path d="M 9.484375 0.375 C 7.804688 0.375 6.285156 0.164062 4.921875 -0.25 C 3.566406 -0.664062 2.539062 -1.097656 1.84375 -1.546875 L 1.46875 -6.640625 L 1.84375 -6.71875 C 2.738281 -4.726562 3.914062 -3.164062 5.375 -2.03125 C 6.832031 -0.894531 8.507812 -0.316406 10.40625 -0.296875 C 11.726562 -0.296875 12.816406 -0.648438 13.671875 -1.359375 C 14.523438 -2.078125 14.953125 -3.023438 14.953125 -4.203125 C 14.953125 -5.203125 14.660156 -6.007812 14.078125 -6.625 C 13.503906 -7.25 12.75 -7.753906 11.8125 -8.140625 C 10.875 -8.535156 9.863281 -8.898438 8.78125 -9.234375 C 7.457031 -9.648438 6.273438 -10.085938 5.234375 -10.546875 C 4.203125 -11.015625 3.394531 -11.625 2.8125 -12.375 C 2.226562 -13.132812 1.9375 -14.144531 1.9375 -15.40625 C 1.9375 -17.0625 2.597656 -18.453125 3.921875 -19.578125 C 5.253906 -20.710938 7.140625 -21.28125 9.578125 -21.28125 C 10.941406 -21.28125 12.203125 -21.160156 13.359375 -20.921875 C 14.523438 -20.691406 15.429688 -20.4375 16.078125 -20.15625 L 16.25 -15.875 L 15.828125 -15.78125 C 15.160156 -17.289062 14.195312 -18.492188 12.9375 -19.390625 C 11.675781 -20.285156 10.300781 -20.734375 8.8125 -20.734375 C 7.382812 -20.734375 6.242188 -20.410156 5.390625 -19.765625 C 4.535156 -19.128906 4.109375 -18.28125 4.109375 -17.21875 C 4.109375 -16.34375 4.378906 -15.613281 4.921875 -15.03125 C 5.472656 -14.445312 6.203125 -13.953125 7.109375 -13.546875 C 8.023438 -13.140625 9.03125 -12.753906 10.125 -12.390625 C 10.925781 -12.128906 11.738281 -11.851562 12.5625 -11.5625 C 13.394531 -11.269531 14.15625 -10.90625 14.84375 -10.46875 C 15.53125 -10.039062 16.085938 -9.484375 16.515625 -8.796875 C 16.953125 -8.109375 17.171875 -7.234375 17.171875 -6.171875 C 17.171875 -4.992188 16.882812 -3.90625 16.3125 -2.90625 C 15.738281 -1.914062 14.875 -1.128906 13.71875 -0.546875 C 12.570312 0.0351562 11.160156 0.34375 9.484375 0.375 Z M 9.484375 0.375 "/></g></g></g><g fill="#000000" fill-opacity="1"><g transform="translate(387.962962, 457.309056)"><g><path d="M 11.46875 0.421875 C 10.3125 0.421875 9.144531 0.210938 7.96875 -0.203125 C 6.800781 -0.628906 5.726562 -1.269531 4.75 -2.125 C 3.769531 -2.976562 2.984375 -4.046875 2.390625 -5.328125 C 1.804688 -6.617188 1.515625 -8.128906 1.515625 -9.859375 C 1.515625 -12.160156 2.023438 -14.164062 3.046875 -15.875 C 4.066406 -17.582031 5.414062 -18.910156 7.09375 -19.859375 C 8.769531 -20.804688 10.585938 -21.28125 12.546875 -21.28125 C 14.316406 -21.28125 15.820312 -20.9375 17.0625 -20.25 C 18.3125 -19.570312 19.273438 -18.671875 19.953125 -17.546875 C 20.640625 -16.429688 21 -15.203125 21.03125 -13.859375 L 4.625 -13.859375 C 4.539062 -13.242188 4.5 -12.597656 4.5 -11.921875 C 4.5 -10.015625 4.867188 -8.328125 5.609375 -6.859375 C 6.347656 -5.390625 7.394531 -4.25 8.75 -3.4375 C 10.113281 -2.625 11.703125 -2.21875 13.515625 -2.21875 C 15.140625 -2.21875 16.550781 -2.550781 17.75 -3.21875 C 18.957031 -3.894531 20.035156 -4.78125 20.984375 -5.875 L 21.375 -5.5 C 20.675781 -4.519531 19.832031 -3.570312 18.84375 -2.65625 C 17.863281 -1.75 16.765625 -1.007812 15.546875 -0.4375 C 14.335938 0.132812 12.976562 0.421875 11.46875 0.421875 Z M 4.75 -14.40625 L 17.671875 -14.40625 C 17.535156 -15.351562 17.191406 -16.296875 16.640625 -17.234375 C 16.097656 -18.171875 15.367188 -18.953125 14.453125 -19.578125 C 13.546875 -20.210938 12.453125 -20.53125 11.171875 -20.53125 C 9.378906 -20.5625 7.941406 -19.988281 6.859375 -18.8125 C 5.785156 -17.632812 5.082031 -16.164062 4.75 -14.40625 Z M 4.75 -14.40625 "/></g></g></g><g fill="#000000" fill-opacity="1"><g transform="translate(410.08603, 457.309056)"><g><path d="M 17.59375 0 C 16.75 0 16.328125 -0.421875 16.328125 -1.265625 L 16.328125 -8.8125 C 15.910156 -7.101562 15.253906 -5.550781 14.359375 -4.15625 C 13.460938 -2.757812 12.421875 -1.644531 11.234375 -0.8125 C 10.046875 0.0078125 8.75 0.421875 7.34375 0.421875 C 6.3125 0.421875 5.347656 0.210938 4.453125 -0.203125 C 3.554688 -0.628906 2.832031 -1.25 2.28125 -2.0625 C 1.738281 -2.875 1.46875 -3.878906 1.46875 -5.078125 C 1.46875 -6.535156 1.898438 -7.722656 2.765625 -8.640625 C 3.640625 -9.566406 4.796875 -10.320312 6.234375 -10.90625 C 7.671875 -11.5 9.21875 -12.019531 10.875 -12.46875 L 16.328125 -13.9375 C 16.210938 -15.976562 15.648438 -17.484375 14.640625 -18.453125 C 13.640625 -19.421875 12.242188 -19.90625 10.453125 -19.90625 C 9.191406 -19.90625 7.96875 -19.601562 6.78125 -19 C 5.59375 -18.394531 4.46875 -17.445312 3.40625 -16.15625 L 3.015625 -16.5 C 4.222656 -17.976562 5.585938 -19.144531 7.109375 -20 C 8.640625 -20.851562 10.316406 -21.28125 12.140625 -21.28125 C 14.679688 -21.28125 16.550781 -20.613281 17.75 -19.28125 C 18.957031 -17.957031 19.5625 -16.109375 19.5625 -13.734375 L 19.5625 -5.328125 C 19.5625 -3.617188 19.679688 -2.441406 19.921875 -1.796875 C 20.160156 -1.160156 20.601562 -0.742188 21.25 -0.546875 L 21.25 0 Z M 4.625 -6.25 C 4.625 -4.882812 5.035156 -3.84375 5.859375 -3.125 C 6.679688 -2.414062 7.695312 -2.0625 8.90625 -2.0625 C 10.019531 -2.0625 11.03125 -2.375 11.9375 -3 C 12.851562 -3.632812 13.628906 -4.453125 14.265625 -5.453125 C 14.910156 -6.460938 15.414062 -7.554688 15.78125 -8.734375 C 16.144531 -9.910156 16.328125 -11.046875 16.328125 -12.140625 L 16.328125 -13.390625 L 11.046875 -11.96875 C 10.003906 -11.6875 8.984375 -11.3125 7.984375 -10.84375 C 6.992188 -10.382812 6.1875 -9.789062 5.5625 -9.0625 C 4.9375 -8.34375 4.625 -7.40625 4.625 -6.25 Z M 4.625 -6.25 "/></g></g></g><g fill="#000000" fill-opacity="1"><g transform="translate(432.712847, 457.309056)"><g><path d="M 9.484375 0.375 C 7.804688 0.375 6.285156 0.164062 4.921875 -0.25 C 3.566406 -0.664062 2.539062 -1.097656 1.84375 -1.546875 L 1.46875 -6.640625 L 1.84375 -6.71875 C 2.738281 -4.726562 3.914062 -3.164062 5.375 -2.03125 C 6.832031 -0.894531 8.507812 -0.316406 10.40625 -0.296875 C 11.726562 -0.296875 12.816406 -0.648438 13.671875 -1.359375 C 14.523438 -2.078125 14.953125 -3.023438 14.953125 -4.203125 C 14.953125 -5.203125 14.660156 -6.007812 14.078125 -6.625 C 13.503906 -7.25 12.75 -7.753906 11.8125 -8.140625 C 10.875 -8.535156 9.863281 -8.898438 8.78125 -9.234375 C 7.457031 -9.648438 6.273438 -10.085938 5.234375 -10.546875 C 4.203125 -11.015625 3.394531 -11.625 2.8125 -12.375 C 2.226562 -13.132812 1.9375 -14.144531 1.9375 -15.40625 C 1.9375 -17.0625 2.597656 -18.453125 3.921875 -19.578125 C 5.253906 -20.710938 7.140625 -21.28125 9.578125 -21.28125 C 10.941406 -21.28125 12.203125 -21.160156 13.359375 -20.921875 C 14.523438 -20.691406 15.429688 -20.4375 16.078125 -20.15625 L 16.25 -15.875 L 15.828125 -15.78125 C 15.160156 -17.289062 14.195312 -18.492188 12.9375 -19.390625 C 11.675781 -20.285156 10.300781 -20.734375 8.8125 -20.734375 C 7.382812 -20.734375 6.242188 -20.410156 5.390625 -19.765625 C 4.535156 -19.128906 4.109375 -18.28125 4.109375 -17.21875 C 4.109375 -16.34375 4.378906 -15.613281 4.921875 -15.03125 C 5.472656 -14.445312 6.203125 -13.953125 7.109375 -13.546875 C 8.023438 -13.140625 9.03125 -12.753906 10.125 -12.390625 C 10.925781 -12.128906 11.738281 -11.851562 12.5625 -11.5625 C 13.394531 -11.269531 14.15625 -10.90625 14.84375 -10.46875 C 15.53125 -10.039062 16.085938 -9.484375 16.515625 -8.796875 C 16.953125 -8.109375 17.171875 -7.234375 17.171875 -6.171875 C 17.171875 -4.992188 16.882812 -3.90625 16.3125 -2.90625 C 15.738281 -1.914062 14.875 -1.128906 13.71875 -0.546875 C 12.570312 0.0351562 11.160156 0.34375 9.484375 0.375 Z M 9.484375 0.375 "/></g></g></g><g fill="#000000" fill-opacity="1"><g transform="translate(451.39362, 457.309056)"><g><path d="M 12.515625 0.421875 C 11.171875 0.421875 9.847656 0.210938 8.546875 -0.203125 C 7.242188 -0.628906 6.0625 -1.273438 5 -2.140625 C 3.9375 -3.003906 3.085938 -4.109375 2.453125 -5.453125 C 1.828125 -6.796875 1.515625 -8.378906 1.515625 -10.203125 C 1.515625 -12.390625 2.03125 -14.3125 3.0625 -15.96875 C 4.101562 -17.632812 5.460938 -18.9375 7.140625 -19.875 C 8.816406 -20.8125 10.609375 -21.28125 12.515625 -21.28125 C 13.828125 -21.28125 15.125 -21.078125 16.40625 -20.671875 C 17.695312 -20.265625 18.875 -19.628906 19.9375 -18.765625 C 21 -17.898438 21.851562 -16.796875 22.5 -15.453125 C 23.144531 -14.109375 23.46875 -12.5 23.46875 -10.625 C 23.46875 -8.832031 23.140625 -7.25 22.484375 -5.875 C 21.828125 -4.507812 20.953125 -3.351562 19.859375 -2.40625 C 18.765625 -1.46875 17.570312 -0.757812 16.28125 -0.28125 C 15 0.1875 13.742188 0.421875 12.515625 0.421875 Z M 4.75 -12.59375 C 4.75 -11.25 4.957031 -9.867188 5.375 -8.453125 C 5.789062 -7.046875 6.390625 -5.738281 7.171875 -4.53125 C 7.960938 -3.332031 8.910156 -2.351562 10.015625 -1.59375 C 11.117188 -0.84375 12.367188 -0.46875 13.765625 -0.46875 C 15.273438 -0.46875 16.503906 -0.820312 17.453125 -1.53125 C 18.410156 -2.25 19.117188 -3.191406 19.578125 -4.359375 C 20.046875 -5.535156 20.28125 -6.796875 20.28125 -8.140625 C 20.28125 -9.484375 20.054688 -10.890625 19.609375 -12.359375 C 19.160156 -13.828125 18.519531 -15.191406 17.6875 -16.453125 C 16.863281 -17.710938 15.878906 -18.71875 14.734375 -19.46875 C 13.585938 -20.226562 12.328125 -20.566406 10.953125 -20.484375 C 9.523438 -20.429688 8.347656 -20.039062 7.421875 -19.3125 C 6.503906 -18.582031 5.828125 -17.628906 5.390625 -16.453125 C 4.960938 -15.273438 4.75 -13.988281 4.75 -12.59375 Z M 4.75 -12.59375 "/></g></g></g><g fill="#000000" fill-opacity="1"><g transform="translate(476.66513, 457.309056)"><g><path d="M 1.34375 0 L 1.34375 -0.546875 C 1.988281 -0.742188 2.425781 -1.160156 2.65625 -1.796875 C 2.894531 -2.441406 3.015625 -3.617188 3.015625 -5.328125 L 3.015625 -14.984375 C 3.015625 -15.960938 2.957031 -16.695312 2.84375 -17.1875 C 2.738281 -17.675781 2.5625 -18.03125 2.3125 -18.25 C 2.0625 -18.476562 1.738281 -18.675781 1.34375 -18.84375 L 1.34375 -19.3125 L 5.96875 -21.328125 L 6.296875 -21.03125 L 6.296875 -17.421875 C 7.523438 -18.398438 8.910156 -19.285156 10.453125 -20.078125 C 11.992188 -20.878906 13.578125 -21.28125 15.203125 -21.28125 C 17.273438 -21.28125 18.894531 -20.675781 20.0625 -19.46875 C 21.238281 -18.269531 21.828125 -16.441406 21.828125 -13.984375 L 21.828125 -5.328125 C 21.828125 -3.617188 21.945312 -2.441406 22.1875 -1.796875 C 22.425781 -1.160156 22.867188 -0.742188 23.515625 -0.546875 L 23.515625 0 L 16.875 0 L 16.875 -0.546875 C 17.519531 -0.742188 17.960938 -1.160156 18.203125 -1.796875 C 18.441406 -2.441406 18.5625 -3.617188 18.5625 -5.328125 L 18.5625 -13.140625 C 18.5625 -15.328125 18.097656 -17 17.171875 -18.15625 C 16.242188 -19.320312 14.859375 -19.90625 13.015625 -19.90625 C 11.867188 -19.90625 10.726562 -19.601562 9.59375 -19 C 8.457031 -18.394531 7.359375 -17.644531 6.296875 -16.75 L 6.296875 -5.328125 C 6.296875 -3.617188 6.421875 -2.441406 6.671875 -1.796875 C 6.921875 -1.160156 7.359375 -0.742188 7.984375 -0.546875 L 7.984375 0 Z M 1.34375 0 "/></g></g></g><g fill="#000000" fill-opacity="1"><g transform="translate(501.181006, 457.309056)"><g><path d="M 9.484375 0.375 C 7.804688 0.375 6.285156 0.164062 4.921875 -0.25 C 3.566406 -0.664062 2.539062 -1.097656 1.84375 -1.546875 L 1.46875 -6.640625 L 1.84375 -6.71875 C 2.738281 -4.726562 3.914062 -3.164062 5.375 -2.03125 C 6.832031 -0.894531 8.507812 -0.316406 10.40625 -0.296875 C 11.726562 -0.296875 12.816406 -0.648438 13.671875 -1.359375 C 14.523438 -2.078125 14.953125 -3.023438 14.953125 -4.203125 C 14.953125 -5.203125 14.660156 -6.007812 14.078125 -6.625 C 13.503906 -7.25 12.75 -7.753906 11.8125 -8.140625 C 10.875 -8.535156 9.863281 -8.898438 8.78125 -9.234375 C 7.457031 -9.648438 6.273438 -10.085938 5.234375 -10.546875 C 4.203125 -11.015625 3.394531 -11.625 2.8125 -12.375 C 2.226562 -13.132812 1.9375 -14.144531 1.9375 -15.40625 C 1.9375 -17.0625 2.597656 -18.453125 3.921875 -19.578125 C 5.253906 -20.710938 7.140625 -21.28125 9.578125 -21.28125 C 10.941406 -21.28125 12.203125 -21.160156 13.359375 -20.921875 C 14.523438 -20.691406 15.429688 -20.4375 16.078125 -20.15625 L 16.25 -15.875 L 15.828125 -15.78125 C 15.160156 -17.289062 14.195312 -18.492188 12.9375 -19.390625 C 11.675781 -20.285156 10.300781 -20.734375 8.8125 -20.734375 C 7.382812 -20.734375 6.242188 -20.410156 5.390625 -19.765625 C 4.535156 -19.128906 4.109375 -18.28125 4.109375 -17.21875 C 4.109375 -16.34375 4.378906 -15.613281 4.921875 -15.03125 C 5.472656 -14.445312 6.203125 -13.953125 7.109375 -13.546875 C 8.023438 -13.140625 9.03125 -12.753906 10.125 -12.390625 C 10.925781 -12.128906 11.738281 -11.851562 12.5625 -11.5625 C 13.394531 -11.269531 14.15625 -10.90625 14.84375 -10.46875 C 15.53125 -10.039062 16.085938 -9.484375 16.515625 -8.796875 C 16.953125 -8.109375 17.171875 -7.234375 17.171875 -6.171875 C 17.171875 -4.992188 16.882812 -3.90625 16.3125 -2.90625 C 15.738281 -1.914062 14.875 -1.128906 13.71875 -0.546875 C 12.570312 0.0351562 11.160156 0.34375 9.484375 0.375 Z M 9.484375 0.375 "/></g></g></g><g clip-path="url(#ea53092c3d)"><path fill="#101010" d="M 371.253906 725.378906 C 368.597656 725.378906 367.039062 724.148438 366.269531 723.246094 C 363.960938 720.59375 363.980469 716.074219 366.308594 711.191406 C 368.578125 706.441406 373.3125 701.15625 380.089844 699.214844 C 365.863281 686.21875 359.050781 672.683594 359.820312 658.9375 C 360.917969 639.617188 376.453125 627.121094 383.074219 622.640625 C 384.402344 621.738281 386.191406 622.105469 387.078125 623.410156 C 387.960938 624.738281 387.613281 626.527344 386.304688 627.410156 C 380.398438 631.410156 366.519531 642.5 365.578125 659.246094 C 364.863281 671.953125 371.910156 684.738281 386.554688 697.234375 C 389.734375 699.945312 391.003906 704.191406 390.019531 708.921875 C 388.539062 716.113281 382.457031 722.359375 374.507812 724.839844 C 373.257812 725.226562 372.179688 725.378906 371.234375 725.378906 Z M 384.402344 704.25 C 377.972656 704.808594 373.488281 709.519531 371.503906 713.671875 C 370.023438 716.785156 370.195312 718.976562 370.621094 719.457031 C 370.773438 719.628906 371.484375 719.746094 372.8125 719.324219 C 379.609375 717.207031 383.515625 711.980469 384.382812 707.75 C 384.554688 706.867188 384.707031 705.539062 384.382812 704.25 Z M 384.402344 704.25 " fill-opacity="1" fill-rule="nonzero"/></g><g clip-path="url(#75fdbceafc)"><path fill="#101010" d="M 449.382812 725.378906 C 448.4375 725.378906 447.339844 725.226562 446.109375 724.839844 C 438.160156 722.359375 432.078125 716.113281 430.59375 708.921875 C 429.632812 704.210938 430.882812 699.945312 434.058594 697.234375 C 448.707031 684.738281 455.753906 671.953125 455.039062 659.246094 C 454.097656 642.5 440.238281 631.410156 434.308594 627.410156 C 432.980469 626.527344 432.636719 624.71875 433.539062 623.410156 C 434.425781 622.085938 436.234375 621.738281 437.542969 622.640625 C 444.164062 627.121094 459.71875 639.597656 460.796875 658.9375 C 461.566406 672.683594 454.75 686.238281 440.527344 699.234375 C 447.300781 701.195312 452.058594 706.480469 454.308594 711.210938 C 456.636719 716.09375 456.65625 720.609375 454.347656 723.265625 C 453.558594 724.167969 452 725.398438 449.363281 725.398438 Z M 436.234375 704.25 C 435.925781 705.558594 436.0625 706.867188 436.234375 707.75 C 437.101562 711.980469 441.007812 717.207031 447.804688 719.324219 C 449.132812 719.726562 449.84375 719.628906 449.996094 719.457031 C 450.421875 718.976562 450.59375 716.765625 449.113281 713.652344 C 447.128906 709.5 442.644531 704.789062 436.214844 704.230469 Z M 436.234375 704.25 " fill-opacity="1" fill-rule="nonzero"/></g><path fill="#101010" d="M 589.699219 566.71875 C 578.746094 566.71875 569.199219 565.890625 562.039062 564.46875 C 560.480469 564.160156 559.460938 562.640625 559.765625 561.085938 C 560.074219 559.527344 561.597656 558.507812 563.15625 558.816406 C 604.09375 566.890625 708.300781 554.375 724.257812 493.375 C 724.664062 491.839844 726.242188 490.914062 727.78125 491.320312 C 729.320312 491.722656 730.246094 493.300781 729.839844 494.835938 C 715.386719 550.128906 638.644531 566.71875 589.699219 566.71875 Z M 589.699219 566.71875 " fill-opacity="1" fill-rule="nonzero"/><path fill="#101010" d="M 729.765625 495.816406 C 729.242188 495.816406 728.722656 495.816406 728.203125 495.777344 C 722.410156 495.472656 717.8125 491.453125 716.214844 485.300781 C 714.058594 477.015625 717.636719 465.019531 730.496094 456.925781 C 731.84375 456.082031 733.632812 456.484375 734.480469 457.828125 C 735.328125 459.175781 734.921875 460.964844 733.574219 461.808594 C 723.179688 468.34375 720.160156 477.59375 721.796875 483.839844 C 722.757812 487.53125 725.277344 489.839844 728.511719 490.011719 C 735.152344 490.359375 739.851562 488.128906 742.449219 483.359375 C 746.085938 476.707031 744.507812 467.269531 740.964844 462.347656 C 740.042969 461.058594 740.332031 459.253906 741.621094 458.328125 C 742.910156 457.40625 744.71875 457.695312 745.644531 458.984375 C 750.300781 465.480469 752.285156 477.398438 747.511719 486.128906 C 744.066406 492.394531 737.808594 495.796875 729.765625 495.796875 Z M 729.765625 495.816406 " fill-opacity="1" fill-rule="nonzero"/><g clip-path="url(#e645d092cc)"><path fill="#101010" d="M 729.496094 495.796875 C 729.109375 495.796875 728.707031 495.796875 728.300781 495.796875 C 726.703125 495.761719 725.433594 494.453125 725.472656 492.855469 C 725.511719 491.28125 726.800781 490.03125 728.359375 490.03125 C 728.378906 490.03125 728.398438 490.03125 728.417969 490.03125 C 742.582031 490.320312 752.015625 484.957031 756.441406 474.054688 C 757.039062 472.574219 758.730469 471.863281 760.195312 472.460938 C 761.675781 473.054688 762.390625 474.746094 761.792969 476.207031 C 756.574219 489.050781 745.429688 495.796875 729.496094 495.796875 Z M 729.496094 495.796875 " fill-opacity="1" fill-rule="nonzero"/></g><path fill="#101010" d="M 220.582031 551.589844 C 171.636719 551.589844 94.894531 534.996094 80.441406 479.707031 C 80.035156 478.167969 80.960938 476.59375 82.5 476.1875 C 84.039062 475.785156 85.617188 476.707031 86.023438 478.246094 C 101.976562 539.246094 206.1875 551.761719 247.125 543.6875 C 248.683594 543.378906 250.207031 544.398438 250.511719 545.957031 C 250.820312 547.511719 249.800781 549.03125 248.242188 549.339844 C 241.082031 550.742188 231.515625 551.589844 220.582031 551.589844 Z M 220.582031 551.589844 " fill-opacity="1" fill-rule="nonzero"/><path fill="#101010" d="M 80.515625 480.6875 C 72.472656 480.6875 66.214844 477.285156 62.769531 471.019531 C 57.996094 462.289062 59.960938 450.351562 64.636719 443.871094 C 65.5625 442.585938 67.371094 442.277344 68.660156 443.21875 C 69.949219 444.140625 70.257812 445.949219 69.316406 447.238281 C 65.773438 452.175781 64.195312 461.617188 67.832031 468.25 C 70.429688 472.996094 75.128906 475.246094 81.769531 474.902344 C 85 474.726562 87.523438 472.421875 88.484375 468.730469 C 90.121094 462.480469 87.097656 453.234375 76.707031 446.699219 C 75.359375 445.851562 74.953125 444.066406 75.800781 442.71875 C 76.648438 441.375 78.4375 440.96875 79.785156 441.816406 C 92.644531 449.910156 96.222656 461.90625 94.066406 470.191406 C 92.46875 476.34375 87.871094 480.359375 82.074219 480.667969 C 81.554688 480.6875 81.035156 480.707031 80.515625 480.707031 Z M 80.515625 480.6875 " fill-opacity="1" fill-rule="nonzero"/><path fill="#101010" d="M 80.785156 480.667969 C 64.847656 480.667969 53.703125 473.921875 48.488281 461.078125 C 47.890625 459.597656 48.605469 457.925781 50.085938 457.328125 C 51.566406 456.734375 53.242188 457.445312 53.839844 458.925781 C 58.265625 469.824219 67.660156 475.1875 81.863281 474.902344 C 83.480469 474.824219 84.769531 476.132812 84.808594 477.726562 C 84.847656 479.324219 83.578125 480.628906 81.980469 480.667969 C 81.574219 480.667969 81.171875 480.667969 80.785156 480.667969 Z M 80.785156 480.667969 " fill-opacity="1" fill-rule="nonzero"/><g clip-path="url(#7e54cc9b5c)"><path fill="#ffd4d4" d="M 144.996094 505.429688 C 128.464844 534.515625 130.042969 581.675781 189.84375 580.097656 C 207.148438 626.46875 248.070312 629.621094 288.199219 612.320312 C 312.585938 646.902344 336.203125 644.539062 360.589844 626.46875 C 391.273438 653.191406 440.066406 650.824219 460.527344 618.605469 C 498.289062 655.535156 554.957031 644.539062 573.835938 616.242188 C 617.125 630.390625 639.144531 600.515625 638.355469 578.523438 C 691.863281 553.375 671.40625 487.359375 648.578125 468.480469 C 682.414062 439.394531 676.910156 396.964844 635.199219 389.890625 C 632.832031 345.882812 601.363281 336.445312 568.3125 345.097656 C 550.238281 286.941406 507.742188 290.863281 479.425781 298.726562 C 452.671875 274.367188 426.707031 290.902344 408.613281 302.6875 C 364.554688 272.792969 312.605469 295.59375 305.523438 328.601562 C 251.226562 326.238281 212.671875 345.117188 218.175781 384.410156 C 170.960938 387.5625 159.953125 412.710938 166.246094 434.703125 C 133.988281 452.773438 121.398438 474.785156 144.996094 505.429688 Z M 144.996094 505.429688 " fill-opacity="1" fill-rule="nonzero"/></g><path fill="#ef8989" d="M 276.015625 484.550781 C 275.324219 484.628906 274.824219 485.226562 274.898438 485.917969 C 276.476562 501.71875 275.554688 518.847656 244.796875 522.617188 C 233.515625 510.792969 215.25 505.046875 190.480469 505.488281 C 190.535156 493.855469 185.570312 482.148438 180.007812 476.035156 C 179.546875 475.535156 178.757812 475.496094 178.257812 475.957031 C 177.757812 476.417969 177.71875 477.207031 178.179688 477.707031 C 184.28125 484.417969 189.652344 498.355469 187.554688 510.984375 C 186.265625 518.734375 182.222656 524.671875 175.871094 528.171875 C 175.273438 528.5 175.042969 529.269531 175.390625 529.863281 C 175.621094 530.269531 176.042969 530.5 176.484375 530.5 C 176.699219 530.5 176.890625 530.441406 177.082031 530.34375 C 184.128906 526.460938 188.613281 519.886719 190.015625 511.371094 C 190.210938 510.234375 190.324219 509.101562 190.402344 507.949219 C 216.195312 507.488281 234.613281 513.773438 245.144531 526.710938 C 255.941406 539.996094 258.441406 560.507812 252.398438 586.058594 C 252.246094 586.730469 252.648438 587.402344 253.324219 587.558594 C 253.417969 587.578125 253.515625 587.597656 253.613281 587.597656 C 254.171875 587.597656 254.691406 587.210938 254.824219 586.632812 C 261.0625 560.316406 258.386719 539.054688 247.085938 525.136719 C 246.992188 525.019531 246.894531 524.921875 246.816406 524.828125 C 276.652344 520.558594 279.210938 503.507812 277.421875 485.628906 C 277.34375 484.9375 276.746094 484.457031 276.054688 484.511719 Z M 276.015625 484.550781 " fill-opacity="1" fill-rule="nonzero"/><path fill="#ef8989" d="M 302.847656 444.199219 C 291.03125 444.546875 263.023438 442.46875 258.078125 415.363281 C 252.917969 387.101562 264.796875 366.953125 293.378906 355.4375 C 294.011719 355.1875 294.320312 354.457031 294.070312 353.824219 C 293.820312 353.191406 293.089844 352.882812 292.453125 353.132812 C 263.121094 364.9375 250.398438 386.523438 255.59375 415.554688 C 253.476562 428.300781 247.644531 435.492188 238.753906 436.316406 C 226.972656 437.414062 212.632812 427.167969 210.152344 420.398438 C 209.917969 419.746094 209.207031 419.417969 208.554688 419.648438 C 207.898438 419.878906 207.570312 420.589844 207.800781 421.246094 C 210.4375 428.492188 224.433594 438.894531 236.960938 438.894531 C 237.636719 438.894531 238.308594 438.855469 238.964844 438.796875 C 245.316406 438.203125 253.226562 434.492188 256.921875 421.035156 C 264.160156 443.621094 288.085938 446.738281 300.632812 446.738281 C 301.441406 446.738281 302.210938 446.738281 302.90625 446.699219 C 303.597656 446.679688 304.136719 446.101562 304.117188 445.410156 C 304.097656 444.71875 303.484375 444.121094 302.828125 444.199219 Z M 302.847656 444.199219 " fill-opacity="1" fill-rule="nonzero"/><path fill="#ef8989" d="M 302.847656 387.21875 C 303.464844 387.238281 304.058594 387.257812 304.65625 387.257812 C 317.554688 387.257812 328.871094 382.355469 334.453125 374.222656 C 338.996094 367.609375 339.457031 359.535156 335.78125 350.902344 C 335.511719 350.269531 334.78125 349.980469 334.144531 350.25 C 333.507812 350.519531 333.222656 351.25 333.492188 351.882812 C 336.820312 359.6875 336.453125 366.933594 332.394531 372.800781 C 327.023438 380.605469 315.761719 385.179688 302.945312 384.71875 C 302.308594 384.660156 301.671875 385.238281 301.65625 385.910156 C 301.636719 386.601562 302.175781 387.179688 302.847656 387.199219 Z M 302.847656 387.21875 " fill-opacity="1" fill-rule="nonzero"/><path fill="#ef8989" d="M 356.261719 325.121094 C 366.980469 325.121094 376.585938 329.449219 381.976562 336.714844 C 388 344.828125 388.867188 356.132812 384.574219 370.28125 C 384.382812 370.933594 384.746094 371.625 385.402344 371.835938 C 385.515625 371.875 385.652344 371.894531 385.765625 371.894531 C 386.304688 371.894531 386.789062 371.550781 386.960938 371.011719 C 390.964844 357.824219 390.65625 346.902344 386.054688 338.484375 C 399.492188 334.023438 412.136719 334.675781 421.800781 340.386719 C 429.441406 344.902344 434.773438 352.460938 436.082031 360.609375 C 438.5625 376.183594 429.730469 390.273438 408.289062 404.980469 C 407.730469 405.367188 407.574219 406.152344 407.960938 406.710938 C 408.210938 407.058594 408.59375 407.25 408.980469 407.25 C 409.230469 407.25 409.460938 407.171875 409.691406 407.039062 C 425.820312 395.984375 435.042969 385.140625 437.949219 373.722656 C 443.953125 376.125 449.9375 377.335938 455.773438 377.335938 C 462.488281 377.335938 469.015625 375.757812 475.136719 372.605469 C 490.476562 364.707031 500.15625 348.671875 502.640625 337.117188 C 502.792969 336.445312 502.351562 335.792969 501.675781 335.636719 C 501.003906 335.503906 500.347656 335.925781 500.195312 336.597656 C 497.828125 347.59375 488.609375 362.878906 473.980469 370.394531 C 463.046875 376.027344 450.785156 376.296875 438.449219 371.261719 C 439.0625 367.667969 439.101562 363.992188 438.507812 360.246094 C 437.0625 351.230469 431.441406 343.230469 423.03125 338.253906 C 412.597656 332.082031 399.011719 331.410156 384.671875 336.3125 C 384.421875 335.945312 384.1875 335.582031 383.9375 335.234375 C 378.085938 327.351562 367.710938 322.640625 356.222656 322.640625 C 355.527344 322.640625 354.972656 323.199219 354.972656 323.890625 C 354.972656 324.582031 355.527344 325.140625 356.222656 325.140625 Z M 356.261719 325.121094 " fill-opacity="1" fill-rule="nonzero"/><path fill="#ef8989" d="M 536.535156 392.332031 C 554.128906 391.390625 576.300781 397.828125 582.054688 433.722656 C 582.152344 434.335938 582.691406 434.777344 583.289062 434.777344 C 583.347656 434.777344 583.421875 434.777344 583.480469 434.777344 C 584.15625 434.664062 584.617188 434.03125 584.519531 433.355469 C 582.980469 423.800781 580.34375 416.246094 576.9375 410.285156 C 575.703125 396.3125 578.304688 386.332031 584.425781 381.449219 C 590.890625 376.296875 599.785156 377.664062 606.117188 379.71875 C 606.769531 379.929688 607.484375 379.585938 607.695312 378.933594 C 607.90625 378.277344 607.558594 377.566406 606.90625 377.355469 C 596.992188 374.125 588.695312 374.875 582.882812 379.507812 C 576.6875 384.449219 573.78125 393.386719 574.203125 406.058594 C 564.058594 392.160156 549.125 389.21875 536.417969 389.890625 C 535.726562 389.929688 535.207031 390.503906 535.246094 391.195312 C 535.285156 391.890625 535.882812 392.425781 536.554688 392.371094 Z M 536.535156 392.332031 " fill-opacity="1" fill-rule="nonzero"/><path fill="#ef8989" d="M 629.964844 541.535156 C 597.378906 545.320312 574.242188 530.5 569.5625 502.871094 C 565.253906 477.34375 578.628906 456.328125 605.347656 446.640625 C 606 446.410156 606.328125 445.699219 606.097656 445.046875 C 605.867188 444.390625 605.152344 444.066406 604.5 444.296875 C 576.550781 454.425781 562.578125 476.476562 567.101562 503.277344 C 571.507812 529.363281 591.449219 544.609375 620.089844 544.609375 C 623.363281 544.609375 626.769531 544.417969 630.253906 543.996094 C 630.945312 543.917969 631.425781 543.300781 631.351562 542.609375 C 631.273438 541.917969 630.636719 541.4375 629.964844 541.515625 Z M 629.964844 541.535156 " fill-opacity="1" fill-rule="nonzero"/><path fill="#ef8989" d="M 596.859375 563.546875 C 577.550781 560.449219 571.414062 568.582031 567.351562 578.695312 C 562.421875 569.773438 553.183594 565.101562 539.597656 560.835938 C 538.941406 560.625 538.25 560.988281 538.035156 561.644531 C 537.824219 562.296875 538.191406 562.988281 538.84375 563.199219 C 553.320312 567.738281 562.191406 572.3125 566.3125 582.019531 C 566.351562 582.136719 566.386719 582.25 566.445312 582.367188 C 568.121094 586.480469 568.988281 591.480469 569.0625 597.785156 C 569.0625 598.476562 569.621094 599.015625 570.316406 599.015625 C 571.007812 599.015625 571.546875 598.4375 571.546875 597.765625 C 571.46875 591.324219 570.546875 586.136719 568.8125 581.808594 C 572.816406 570.964844 577.53125 562.988281 596.472656 566.007812 C 597.148438 566.121094 597.78125 565.660156 597.898438 564.96875 C 598.011719 564.296875 597.550781 563.660156 596.859375 563.546875 Z M 596.859375 563.546875 " fill-opacity="1" fill-rule="nonzero"/><path fill="#ef8989" d="M 339.609375 573.753906 C 338.917969 573.832031 338.4375 574.445312 338.515625 575.117188 C 339.746094 586.382812 337.589844 594.015625 332.105469 597.84375 C 325.386719 602.515625 314.398438 600.609375 306.464844 596.652344 C 305.851562 596.34375 305.101562 596.59375 304.792969 597.207031 C 304.484375 597.824219 304.734375 598.574219 305.351562 598.878906 C 310.027344 601.226562 316.167969 603.089844 322.078125 603.089844 C 326.195312 603.089844 330.199219 602.167969 333.507812 599.878906 C 339.804688 595.496094 342.324219 587.078125 340.976562 574.832031 C 340.902344 574.136719 340.265625 573.65625 339.609375 573.734375 Z M 339.609375 573.753906 " fill-opacity="1" fill-rule="nonzero"/><path fill="#ef8989" d="M 506.316406 540.359375 C 505.605469 540.285156 505.007812 540.785156 504.949219 541.457031 C 504.910156 541.878906 499.984375 583.847656 472.113281 589.5 C 448.765625 594.226562 428.554688 582.519531 412.058594 554.722656 C 411.714844 554.125 410.945312 553.933594 410.347656 554.28125 C 409.75 554.625 409.558594 555.394531 409.902344 555.992188 C 417.757812 569.238281 426.476562 578.925781 435.964844 585.078125 C 438.160156 594.632812 436.351562 602.4375 430.710938 607.648438 C 424.1875 613.644531 412.753906 615.585938 402.917969 612.339844 C 402.261719 612.125 401.550781 612.472656 401.339844 613.125 C 401.128906 613.78125 401.472656 614.492188 402.128906 614.703125 C 405.554688 615.835938 409.171875 616.375 412.714844 616.375 C 420.238281 616.375 427.515625 613.953125 432.386719 609.472656 C 436.5625 605.628906 440.875 598.632812 438.851562 586.828125 C 446.167969 590.941406 453.90625 593.035156 462.085938 593.035156 C 465.511719 593.035156 469.015625 592.671875 472.574219 591.960938 C 502.234375 585.960938 507.203125 543.550781 507.394531 541.746094 C 507.472656 541.054688 506.96875 540.457031 506.296875 540.378906 Z M 506.316406 540.359375 " fill-opacity="1" fill-rule="nonzero"/><path fill="#101010" d="M 312.28125 480.246094 C 298.402344 480.246094 284.542969 474.132812 275.324219 463.730469 C 274.265625 462.539062 274.378906 460.714844 275.574219 459.65625 C 276.765625 458.597656 278.597656 458.714844 279.65625 459.90625 C 288.605469 470.019531 302.519531 475.515625 315.996094 474.304688 C 329.449219 473.074219 342.152344 465.152344 349.140625 453.601562 C 349.964844 452.234375 351.738281 451.792969 353.105469 452.621094 C 354.46875 453.445312 354.914062 455.214844 354.085938 456.578125 C 346.175781 469.671875 331.777344 478.667969 316.53125 480.054688 C 315.128906 480.1875 313.722656 480.246094 312.316406 480.246094 Z M 312.28125 480.246094 " fill-opacity="1" fill-rule="nonzero"/><path fill="#101010" d="M 504.949219 480.246094 C 503.542969 480.246094 502.140625 480.1875 500.734375 480.054688 C 485.488281 478.667969 471.09375 469.671875 463.183594 456.578125 C 462.355469 455.214844 462.796875 453.445312 464.164062 452.621094 C 465.53125 451.792969 467.300781 452.234375 468.128906 453.601562 C 475.117188 465.152344 487.820312 473.09375 501.273438 474.304688 C 514.746094 475.535156 528.664062 470.019531 537.613281 459.90625 C 538.671875 458.714844 540.5 458.597656 541.695312 459.65625 C 542.886719 460.714844 543.003906 462.539062 541.945312 463.730469 C 532.722656 474.132812 518.867188 480.246094 504.988281 480.246094 Z M 504.949219 480.246094 " fill-opacity="1" fill-rule="nonzero"/><path fill="#101010" d="M 412.847656 514.582031 C 392.925781 514.582031 373.410156 510.621094 364.824219 505.601562 C 363.460938 504.796875 362.996094 503.027344 363.785156 501.660156 C 364.59375 500.296875 366.367188 499.835938 367.730469 500.625 C 381.78125 508.851562 430.054688 514.042969 452.847656 500.625 C 454.210938 499.816406 455.984375 500.277344 456.792969 501.640625 C 457.601562 503.007812 457.136719 504.777344 455.773438 505.582031 C 444.761719 512.0625 428.671875 514.5625 412.808594 514.5625 Z M 412.847656 514.582031 " fill-opacity="1" fill-rule="nonzero"/><path fill="#ef5b5b" d="M 554.011719 502.46875 C 554.011719 502.878906 553.960938 503.289062 553.855469 503.695312 C 553.753906 504.105469 553.597656 504.507812 553.390625 504.910156 C 553.183594 505.3125 552.925781 505.710938 552.617188 506.101562 C 552.308594 506.496094 551.949219 506.878906 551.542969 507.257812 C 551.136719 507.636719 550.683594 508.007812 550.183594 508.367188 C 549.683594 508.730469 549.140625 509.082031 548.550781 509.421875 C 547.960938 509.761719 547.328125 510.09375 546.65625 510.410156 C 545.980469 510.726562 545.269531 511.027344 544.519531 511.320312 C 543.769531 511.609375 542.980469 511.882812 542.160156 512.144531 C 541.339844 512.402344 540.488281 512.648438 539.605469 512.875 C 538.722656 513.101562 537.816406 513.3125 536.878906 513.507812 C 535.941406 513.699219 534.984375 513.875 534.003906 514.03125 C 533.023438 514.1875 532.023438 514.328125 531.007812 514.445312 C 529.992188 514.566406 528.964844 514.664062 527.921875 514.742188 C 526.882812 514.824219 525.832031 514.882812 524.777344 514.925781 C 523.71875 514.964844 522.660156 514.984375 521.597656 514.984375 C 520.539062 514.984375 519.476562 514.964844 518.421875 514.925781 C 517.367188 514.882812 516.316406 514.824219 515.277344 514.742188 C 514.234375 514.664062 513.207031 514.566406 512.191406 514.445312 C 511.175781 514.328125 510.175781 514.1875 509.195312 514.03125 C 508.214844 513.875 507.253906 513.699219 506.320312 513.507812 C 505.382812 513.3125 504.472656 513.101562 503.589844 512.875 C 502.707031 512.648438 501.855469 512.402344 501.035156 512.144531 C 500.214844 511.882812 499.429688 511.609375 498.679688 511.320312 C 497.929688 511.027344 497.214844 510.726562 496.542969 510.410156 C 495.871094 510.09375 495.238281 509.761719 494.648438 509.421875 C 494.058594 509.082031 493.511719 508.730469 493.011719 508.367188 C 492.511719 508.007812 492.058594 507.636719 491.652344 507.257812 C 491.246094 506.878906 490.890625 506.496094 490.582031 506.101562 C 490.273438 505.710938 490.015625 505.3125 489.808594 504.910156 C 489.601562 504.507812 489.445312 504.105469 489.34375 503.695312 C 489.238281 503.289062 489.1875 502.878906 489.1875 502.46875 C 489.1875 502.058594 489.238281 501.652344 489.339844 501.242188 C 489.445312 500.835938 489.601562 500.429688 489.808594 500.027344 C 490.015625 499.625 490.273438 499.226562 490.582031 498.835938 C 490.890625 498.445312 491.246094 498.058594 491.652344 497.679688 C 492.058594 497.300781 492.511719 496.929688 493.011719 496.570312 C 493.511719 496.207031 494.058594 495.855469 494.648438 495.515625 C 495.238281 495.175781 495.871094 494.847656 496.542969 494.53125 C 497.214844 494.210938 497.929688 493.910156 498.679688 493.621094 C 499.429688 493.328125 500.214844 493.054688 501.035156 492.792969 C 501.855469 492.535156 502.707031 492.289062 503.589844 492.0625 C 504.472656 491.835938 505.382812 491.625 506.320312 491.433594 C 507.253906 491.238281 508.214844 491.0625 509.195312 490.90625 C 510.175781 490.75 511.175781 490.613281 512.191406 490.492188 C 513.207031 490.375 514.234375 490.273438 515.277344 490.195312 C 516.316406 490.113281 517.367188 490.054688 518.421875 490.015625 C 519.476562 489.972656 520.539062 489.953125 521.597656 489.953125 C 522.660156 489.953125 523.71875 489.972656 524.777344 490.015625 C 525.832031 490.054688 526.882812 490.113281 527.921875 490.195312 C 528.964844 490.273438 529.992188 490.375 531.007812 490.492188 C 532.023438 490.613281 533.023438 490.75 534.003906 490.90625 C 534.984375 491.0625 535.941406 491.238281 536.878906 491.433594 C 537.816406 491.625 538.722656 491.835938 539.605469 492.0625 C 540.488281 492.289062 541.339844 492.535156 542.160156 492.792969 C 542.980469 493.054688 543.769531 493.328125 544.519531 493.621094 C 545.269531 493.910156 545.980469 494.210938 546.65625 494.53125 C 547.328125 494.847656 547.960938 495.175781 548.550781 495.515625 C 549.140625 495.855469 549.683594 496.207031 550.183594 496.570312 C 550.683594 496.929688 551.136719 497.300781 551.542969 497.679688 C 551.949219 498.058594 552.308594 498.445312 552.617188 498.835938 C 552.925781 499.226562 553.183594 499.625 553.390625 500.027344 C 553.597656 500.429688 553.753906 500.835938 553.855469 501.242188 C 553.960938 501.652344 554.011719 502.058594 554.011719 502.46875 Z M 554.011719 502.46875 " fill-opacity="1" fill-rule="nonzero"/><path fill="#ef5b5b" d="M 327.929688 502.46875 C 327.929688 502.878906 327.875 503.289062 327.773438 503.695312 C 327.667969 504.105469 327.511719 504.507812 327.304688 504.910156 C 327.097656 505.3125 326.839844 505.710938 326.53125 506.101562 C 326.222656 506.496094 325.867188 506.878906 325.460938 507.257812 C 325.054688 507.636719 324.601562 508.007812 324.101562 508.367188 C 323.601562 508.730469 323.054688 509.082031 322.464844 509.421875 C 321.875 509.761719 321.242188 510.09375 320.570312 510.410156 C 319.898438 510.726562 319.183594 511.027344 318.433594 511.320312 C 317.683594 511.609375 316.898438 511.882812 316.078125 512.144531 C 315.257812 512.402344 314.40625 512.648438 313.523438 512.875 C 312.640625 513.101562 311.730469 513.3125 310.792969 513.507812 C 309.859375 513.699219 308.898438 513.875 307.917969 514.03125 C 306.9375 514.1875 305.941406 514.328125 304.921875 514.445312 C 303.90625 514.566406 302.878906 514.664062 301.839844 514.742188 C 300.796875 514.824219 299.75 514.882812 298.691406 514.925781 C 297.636719 514.964844 296.574219 514.984375 295.515625 514.984375 C 294.453125 514.984375 293.394531 514.964844 292.335938 514.925781 C 291.28125 514.882812 290.230469 514.824219 289.191406 514.742188 C 288.148438 514.664062 287.121094 514.566406 286.105469 514.445312 C 285.089844 514.328125 284.089844 514.1875 283.109375 514.03125 C 282.128906 513.875 281.171875 513.699219 280.234375 513.507812 C 279.296875 513.3125 278.390625 513.101562 277.507812 512.875 C 276.625 512.648438 275.773438 512.402344 274.953125 512.144531 C 274.132812 511.882812 273.34375 511.609375 272.59375 511.320312 C 271.84375 511.027344 271.132812 510.726562 270.457031 510.410156 C 269.785156 510.09375 269.152344 509.761719 268.5625 509.421875 C 267.972656 509.082031 267.429688 508.730469 266.929688 508.367188 C 266.429688 508.007812 265.976562 507.636719 265.570312 507.257812 C 265.164062 506.878906 264.804688 506.496094 264.496094 506.101562 C 264.1875 505.710938 263.929688 505.3125 263.722656 504.910156 C 263.515625 504.507812 263.363281 504.105469 263.257812 503.695312 C 263.152344 503.289062 263.101562 502.878906 263.101562 502.46875 C 263.101562 502.058594 263.152344 501.652344 263.257812 501.242188 C 263.363281 500.835938 263.515625 500.429688 263.722656 500.027344 C 263.929688 499.625 264.1875 499.226562 264.496094 498.835938 C 264.804688 498.445312 265.164062 498.058594 265.570312 497.679688 C 265.976562 497.300781 266.429688 496.929688 266.929688 496.570312 C 267.429688 496.207031 267.972656 495.855469 268.5625 495.515625 C 269.152344 495.175781 269.785156 494.847656 270.457031 494.53125 C 271.132812 494.210938 271.84375 493.910156 272.59375 493.621094 C 273.34375 493.328125 274.132812 493.054688 274.953125 492.792969 C 275.773438 492.535156 276.625 492.289062 277.507812 492.0625 C 278.390625 491.835938 279.296875 491.625 280.234375 491.433594 C 281.171875 491.238281 282.128906 491.0625 283.109375 490.90625 C 284.089844 490.75 285.089844 490.613281 286.105469 490.492188 C 287.121094 490.375 288.148438 490.273438 289.191406 490.195312 C 290.230469 490.113281 291.28125 490.054688 292.335938 490.015625 C 293.394531 489.972656 294.453125 489.953125 295.515625 489.953125 C 296.574219 489.953125 297.636719 489.972656 298.691406 490.015625 C 299.75 490.054688 300.796875 490.113281 301.839844 490.195312 C 302.878906 490.273438 303.90625 490.375 304.921875 490.492188 C 305.941406 490.613281 306.9375 490.75 307.917969 490.90625 C 308.898438 491.0625 309.859375 491.238281 310.792969 491.433594 C 311.730469 491.625 312.640625 491.835938 313.523438 492.0625 C 314.40625 492.289062 315.257812 492.535156 316.078125 492.792969 C 316.898438 493.054688 317.683594 493.328125 318.433594 493.621094 C 319.183594 493.910156 319.898438 494.210938 320.570312 494.53125 C 321.242188 494.847656 321.875 495.175781 322.464844 495.515625 C 323.054688 495.855469 323.601562 496.207031 324.101562 496.570312 C 324.601562 496.929688 325.054688 497.300781 325.460938 497.679688 C 325.867188 498.058594 326.222656 498.445312 326.53125 498.835938 C 326.839844 499.226562 327.097656 499.625 327.304688 500.027344 C 327.511719 500.429688 327.667969 500.835938 327.773438 501.242188 C 327.875 501.652344 327.929688 502.058594 327.929688 502.46875 Z M 327.929688 502.46875 " fill-opacity="1" fill-rule="nonzero"/></svg>